<svg xmlns="http://www.w3.org/2000/svg" width="1280" height="720" viewBox="0 0 1280 720" role="img" aria-label="Escenario oscuro de ciberseguridad con superficies de riesgo, controles y telemetría">
  <defs>
    <linearGradient id="bg" x1="0" y1="0" x2="1" y2="1">
      <stop offset="0" stop-color="#050505"/>
      <stop offset="0.44" stop-color="#111409"/>
      <stop offset="1" stop-color="#050505"/>
    </linearGradient>
    <linearGradient id="lime" x1="0" y1="0" x2="1" y2="0">
      <stop offset="0" stop-color="#C8E600" stop-opacity="0"/>
      <stop offset="0.48" stop-color="#C8E600" stop-opacity="0.7"/>
      <stop offset="1" stop-color="#C8E600" stop-opacity="0"/>
    </linearGradient>
    <linearGradient id="orange" x1="0" y1="1" x2="1" y2="0">
      <stop offset="0" stop-color="#FF8C00" stop-opacity="0"/>
      <stop offset="0.56" stop-color="#FF8C00" stop-opacity="0.44"/>
      <stop offset="1" stop-color="#FF8C00" stop-opacity="0"/>
    </linearGradient>
    <filter id="glow" x="-35%" y="-35%" width="170%" height="170%">
      <feGaussianBlur stdDeviation="8" result="blur"/>
      <feMerge>
        <feMergeNode in="blur"/>
        <feMergeNode in="SourceGraphic"/>
      </feMerge>
    </filter>
    <pattern id="grid" width="80" height="80" patternUnits="userSpaceOnUse">
      <path d="M80 0H0V80" fill="none" stroke="#2A2A2A" stroke-width="1" opacity="0.46"/>
    </pattern>
    <pattern id="fine" width="20" height="20" patternUnits="userSpaceOnUse">
      <path d="M20 0H0V20" fill="none" stroke="#1A1A1A" stroke-width="1" opacity="0.5"/>
    </pattern>
  </defs>

  <rect width="1280" height="720" fill="url(#bg)"/>
  <rect width="1280" height="720" fill="url(#fine)" opacity="0.42"/>
  <rect width="1280" height="720" fill="url(#grid)" opacity="0.34"/>

  <path d="M0 552 C190 486 352 504 520 456 C744 392 922 338 1280 372 L1280 720 L0 720 Z" fill="#080808" opacity="0.92"/>
  <path d="M74 720 L390 408 M270 720 L520 384 M486 720 L684 360 M720 720 L842 344 M952 720 L1022 330 M1168 720 L1154 318" stroke="#2A2A2A" stroke-width="2" opacity="0.6"/>
  <path d="M0 628 H1280 M0 584 H1280 M0 542 H1280 M0 502 H1280 M0 464 H1280" stroke="#1F2A05" stroke-width="1.2" opacity="0.56"/>

  <g filter="url(#glow)" opacity="0.92">
    <path d="M88 218 C252 116 438 142 584 232 S864 372 1194 250" fill="none" stroke="url(#lime)" stroke-width="6"/>
    <path d="M126 466 C310 350 518 372 698 462 S1000 588 1214 478" fill="none" stroke="url(#orange)" stroke-width="5"/>
  </g>

  <g opacity="0.82">
    <rect x="766" y="92" width="374" height="240" rx="8" fill="#151515" stroke="#2A2A2A" stroke-width="2"/>
    <rect x="798" y="126" width="122" height="12" fill="#C8E600" opacity="0.76"/>
    <rect x="798" y="160" width="284" height="10" fill="#E6E6E6" opacity="0.3"/>
    <rect x="798" y="192" width="236" height="10" fill="#E6E6E6" opacity="0.22"/>
    <rect x="798" y="224" width="308" height="10" fill="#FF8C00" opacity="0.44"/>
    <rect x="798" y="258" width="184" height="10" fill="#E6E6E6" opacity="0.24"/>
    <rect x="798" y="290" width="260" height="10" fill="#C8E600" opacity="0.22"/>
  </g>

  <g fill="#151515" stroke="#C8E600" stroke-width="2" opacity="0.8">
    <rect x="132" y="286" width="124" height="56" rx="6"/>
    <rect x="330" y="236" width="136" height="60" rx="6"/>
    <rect x="532" y="292" width="140" height="64" rx="6"/>
    <rect x="706" y="438" width="132" height="60" rx="6"/>
    <rect x="928" y="402" width="138" height="62" rx="6"/>
  </g>

  <g stroke="#C8E600" stroke-width="2" fill="none" opacity="0.66">
    <path d="M256 314 H330"/>
    <path d="M466 266 C500 268 506 322 532 324"/>
    <path d="M672 324 C704 342 690 468 706 468"/>
    <path d="M838 468 H928"/>
    <circle cx="256" cy="314" r="5" fill="#C8E600"/>
    <circle cx="466" cy="266" r="5" fill="#C8E600"/>
    <circle cx="672" cy="324" r="5" fill="#C8E600"/>
    <circle cx="838" cy="468" r="5" fill="#C8E600"/>
    <circle cx="1066" cy="433" r="5" fill="#C8E600"/>
  </g>

  <g stroke="#FF8C00" stroke-width="2" fill="none" opacity="0.54">
    <path d="M184 520 H348 L398 570 H594"/>
    <path d="M686 170 H766"/>
    <path d="M1058 270 C1118 286 1152 334 1198 406"/>
    <circle cx="184" cy="520" r="4" fill="#FF8C00"/>
    <circle cx="594" cy="570" r="4" fill="#FF8C00"/>
    <circle cx="686" cy="170" r="4" fill="#FF8C00"/>
    <circle cx="1198" cy="406" r="4" fill="#FF8C00"/>
  </g>

  <g opacity="0.58">
    <path d="M610 176 L664 206 V270 C664 314 634 346 610 358 C586 346 556 314 556 270 V206 Z" fill="#101010" stroke="#C8E600" stroke-width="2"/>
    <path d="M590 270 L606 286 L634 246" fill="none" stroke="#C8E600" stroke-width="7" stroke-linecap="round" stroke-linejoin="round"/>
  </g>

  <rect width="1280" height="720" fill="#000" opacity="0.22"/>
</svg>
